<?xml version="1.0" standalone="no"?>
<!DOCTYPE svg PUBLIC "-//W3C//DTD SVG 20010904//EN"
 "http://www.w3.org/TR/2001/REC-SVG-20010904/DTD/svg10.dtd">
<svg version="1.0" xmlns="http://www.w3.org/2000/svg"
 width="755.000000pt" height="330.000000pt" viewBox="0 0 755.000000 330.000000"
 preserveAspectRatio="xMidYMid meet">

<g transform="translate(0.000000,330.000000) scale(0.100000,-0.100000)"
fill="#EB2444" stroke="none">
<path d="M3156 2883 c-84 -23 -351 -238 -392 -316 -14 -25 -14 -31 1 -53 23
-36 85 -32 204 12 119 45 170 47 243 9 29 -15 71 -43 94 -61 71 -58 195 -104
247 -90 41 10 67 43 67 85 0 55 -57 135 -182 257 -136 132 -214 176 -282 157z"/>
<path d="M2090 2330 c-105 -20 -183 -45 -310 -97 -186 -77 -280 -87 -471 -52
-73 14 -129 19 -152 15 -49 -9 -104 -58 -118 -106 -27 -89 18 -152 156 -221
113 -57 165 -110 180 -185 20 -104 1 -235 -76 -504 -25 -89 -22 -178 8 -219
31 -42 101 -73 148 -65 83 13 131 59 183 175 65 143 85 218 122 474 45 306
149 403 464 435 125 13 149 17 207 36 70 22 109 73 109 141 0 140 -205 219
-450 173z"/>
<path d="M2970 2278 c-139 -10 -251 -59 -327 -140 -59 -65 -89 -123 -122 -234
-39 -130 -106 -358 -137 -464 -90 -304 -32 -503 169 -579 221 -82 769 -16 880
107 31 35 39 82 19 121 -35 70 -116 86 -297 56 -129 -21 -259 -19 -312 4 -108
50 -110 193 -2 248 36 19 72 24 195 33 177 11 241 23 285 53 58 39 62 126 8
171 -48 41 -92 47 -268 40 l-160 -7 -30 31 c-51 51 -35 126 44 205 72 72 171
85 440 58 170 -17 222 -11 266 30 29 27 31 34 26 75 -6 56 -27 80 -96 111
-139 62 -384 97 -581 81z"/>
<path d="M4810 2214 c-41 -7 -141 -40 -221 -73 -196 -79 -271 -95 -413 -88
-61 3 -153 15 -205 26 -120 27 -186 27 -228 1 -127 -77 -73 -262 94 -325 90
-34 180 -84 206 -115 57 -68 50 -168 -33 -430 -89 -283 -92 -387 -15 -446 90
-68 255 -22 319 89 40 70 75 200 107 401 16 105 35 211 41 236 18 75 73 185
117 232 82 89 183 125 393 138 156 10 204 25 256 84 18 20 32 49 33 64 4 97
-20 141 -94 175 -102 48 -213 58 -357 31z"/>
<path d="M5372 2110 c-53 -32 -70 -86 -88 -272 -8 -90 -27 -235 -42 -323 -19
-116 -27 -196 -27 -290 0 -117 3 -138 29 -210 15 -44 42 -105 59 -135 41 -74
143 -170 225 -213 109 -57 171 -71 307 -71 103 0 130 4 193 26 154 55 318 176
412 303 88 120 163 304 195 480 35 193 30 483 -11 580 -42 102 -193 114 -281
23 -60 -62 -94 -184 -108 -383 -21 -296 -54 -450 -120 -549 -121 -183 -361
-241 -496 -119 -79 71 -105 160 -96 332 5 99 15 173 52 391 14 84 18 290 5
334 -27 99 -127 145 -208 96z"/>
</g>
</svg>
