<svg width="400" height="120" xmlns="http://www.w3.org/2000/svg">
  <!-- TÊTU Logo - Custom Path Version (more embroidery-like) -->
  
  <!-- T -->
  <path d="M 40 30 L 100 30 L 100 45 L 77 45 L 77 90 L 63 90 L 63 45 L 40 45 Z" fill="#E74C3C"/>
  
  <!-- Ê -->
  <path d="M 110 45 L 110 90 L 124 90 L 124 70 L 150 70 L 150 90 L 164 90 L 164 45 L 150 45 L 150 58 L 124 58 L 124 45 Z" fill="#E74C3C"/>
  <!-- Ê accent -->
  <path d="M 130 25 L 137 35 L 144 25 L 137 20 Z" fill="#E74C3C"/>
  
  <!-- T -->
  <path d="M 180 45 L 240 45 L 240 58 L 217 58 L 217 90 L 203 90 L 203 58 L 180 58 Z" fill="#E74C3C"/>
  
  <!-- U -->
  <path d="M 250 45 L 264 45 L 264 75 Q 264 85 272 85 Q 280 85 280 75 L 280 45 L 294 45 L 294 75 Q 294 95 272 95 Q 250 95 250 75 Z" fill="#E74C3C"/>
  
</svg>
